<svg width="212" height="48" viewBox="0 0 212 48" fill="none" xmlns="http://www.w3.org/2000/svg">
<mask id="mask0" mask-type="alpha" maskUnits="userSpaceOnUse" x="0" y="0" width="47" height="48">
<path fill-rule="evenodd" clip-rule="evenodd" d="M16.8709 3.0395C16.2225 3.42572 15.6089 3.78978 15.1045 3.99877C14.5529 4.22769 13.8306 4.41674 13.0663 4.61686C11.1412 5.12049 8.74708 5.7467 6.87803 7.61723C5.00825 9.48554 4.38203 11.8796 3.8784 13.8033C3.67902 14.5684 3.48997 15.2906 3.26031 15.8444C3.05206 16.3458 2.68874 16.9588 2.30326 17.6064C1.27606 19.3366 0 21.4848 0 24.2208C0 26.9575 1.27606 29.105 2.30105 30.8322C2.68726 31.4821 3.05206 32.095 3.26031 32.5986C3.48997 33.1518 3.67902 33.874 3.8784 34.639C4.38203 36.562 5.00751 38.9561 6.87729 40.8266C8.74708 42.6956 11.1404 43.3211 13.0634 43.8247C13.8329 44.0263 14.5536 44.2146 15.1045 44.4436C15.6089 44.6525 16.2218 45.0166 16.8709 45.4021C18.5974 46.4278 20.7463 47.7039 23.4823 47.7039C26.2191 47.7039 28.368 46.4278 30.0945 45.4021C30.7466 45.0151 31.3588 44.6511 31.8594 44.4436C32.4118 44.2146 33.1318 44.0263 33.8946 43.8262C35.825 43.3211 38.2183 42.6956 40.0866 40.8266C41.9564 38.9568 42.5826 36.5634 43.0863 34.6405C43.2864 33.874 43.4762 33.1518 43.7051 32.5994C43.9141 32.095 44.2782 31.4821 44.6644 30.833C45.6894 29.1057 46.9647 26.9575 46.9647 24.2208C46.9647 21.4855 45.6894 19.3374 44.6651 17.6116C44.2782 16.961 43.9141 16.3466 43.7051 15.8444C43.4762 15.2913 43.2864 14.5691 43.087 13.8048C42.5826 11.8789 41.9564 9.48554 40.0866 7.61723C38.2183 5.7467 35.8242 5.12049 33.9006 4.6176C33.1355 4.41747 32.4133 4.22769 31.8602 3.99877C31.3566 3.78978 30.7429 3.42572 30.0938 3.0395C28.3673 2.01452 26.2191 0.739197 23.4823 0.739197C20.7463 0.739197 18.5989 2.01452 16.8709 3.0395ZM14.5366 16.046C14.2206 15.9678 13.8986 15.8644 13.6549 15.6465C12.6476 14.7449 14.2951 14.1194 14.9841 13.9525C18.4335 13.1188 21.9825 12.7318 25.5294 12.6838C27.456 12.6587 29.4004 12.7348 31.2724 13.1941C32.1135 13.4001 32.9553 13.6948 33.6288 14.242C33.9567 14.5093 34.2506 14.8586 34.3038 15.278C34.3562 15.6967 34.0793 16.173 33.6598 16.2122C33.518 16.2255 33.3711 16.1922 33.2263 16.159C33.0004 16.1073 32.7796 16.0549 32.5972 16.179C32.3675 16.3355 32.3645 16.6722 32.4303 16.9425C32.8165 18.5199 34.5829 19.4348 35.0695 20.9856C35.1338 21.1894 35.1663 21.4331 35.0304 21.5985C34.9196 21.7344 34.7313 21.7721 34.5585 21.8016C33.7529 21.9382 32.9391 22.0756 32.1223 22.0423C31.3056 22.0098 30.4734 21.7927 29.8309 21.2862C28.8945 20.5484 28.495 19.3285 27.747 18.4002C26.9398 17.3989 25.7494 16.7793 24.4933 16.461C24.2452 16.3975 23.9948 16.3466 23.7438 16.3074C22.2233 16.0645 20.6718 16.1849 19.1335 16.2742C18.5236 16.3097 17.9092 16.3392 17.2962 16.3392C16.365 16.3392 15.4383 16.2705 14.5366 16.046ZM17.3627 24.1846C16.9211 24.0628 16.4581 23.9099 16.1605 23.5614C15.5771 22.8761 15.8319 21.6059 16.3724 20.9708C16.9772 20.2604 18.0066 19.9998 18.881 19.827C20.4354 19.5212 22.0224 19.3839 23.6064 19.4149C24.2592 19.4282 24.9511 19.4828 25.4843 19.8631C26.1024 20.304 26.3668 21.0794 26.595 21.8038C26.6363 21.936 26.6791 22.0734 26.6873 22.21C26.6924 22.2816 26.6873 22.3532 26.6695 22.4241C26.6186 22.6183 26.4694 22.7705 26.3202 22.9049C25.149 23.9579 23.5975 24.5302 22.0305 24.686C21.7026 24.7193 21.374 24.734 21.0454 24.734C19.8041 24.734 18.5627 24.5154 17.3627 24.1846ZM36.8802 29.7726C36.7872 29.76 36.7045 29.7061 36.6284 29.6522C36.1986 29.3516 35.7881 29.0068 35.5104 28.5622C34.7099 27.2773 34.783 25.0634 35.983 24.0687C36.0495 24.0133 36.1226 23.9601 36.2075 23.9483C36.3286 23.9321 36.4438 24.0022 36.5406 24.0783C37.44 24.7776 37.7561 25.9835 37.9318 27.1104C37.9872 27.4722 38.0352 27.8422 38.0138 28.2063C38.0071 28.3266 37.9924 28.447 37.9673 28.5666C37.8705 29.0444 37.5914 29.5104 37.1483 29.7157C37.0782 29.7497 37.0014 29.7755 36.9246 29.7755C36.9098 29.7755 36.895 29.7748 36.8802 29.7726ZM28.3495 30.3205C28.0394 30.319 27.7219 30.2917 27.4198 30.2215C26.7271 30.0591 26.0367 29.8796 25.3558 29.6743C25.0604 29.5857 24.7739 29.4439 24.5155 29.277C24.2592 29.1109 24.1529 28.8369 24.1743 28.5223C24.1905 28.289 24.2001 28.0556 24.2134 27.809C24.2134 27.5889 24.2208 27.3548 24.2119 27.1207C24.2001 26.7951 24.2969 26.4997 24.5324 26.2855C24.7798 26.0603 25.0479 25.8447 25.3411 25.6881C26.0566 25.3063 26.7877 24.9556 27.5173 24.6018C28.1635 24.2873 28.8347 24.2215 29.5237 24.4497C30.0598 24.6269 30.5945 24.8108 31.1262 25.0006C31.759 25.2266 32.1408 25.6505 32.1571 26.352C32.1652 26.7581 32.1762 27.1636 32.194 27.569C32.2228 28.2617 31.8882 28.7439 31.3078 29.0681C30.7392 29.3849 30.1588 29.6802 29.5828 29.9845C29.1995 30.1868 28.7926 30.3205 28.3591 30.3205C28.3562 30.3205 28.3532 30.3205 28.3495 30.3205ZM31.4503 36.4446C30.9548 36.1994 30.4741 35.9239 29.9845 35.667C29.4993 35.4122 29.3132 35.0142 29.4535 34.4876C29.6138 33.8814 29.7777 33.2766 29.949 32.674C30.0975 32.1489 30.4401 31.7627 30.895 31.4917C31.6128 31.0641 32.3431 30.6543 33.0786 30.2599C33.5335 30.0148 33.9951 30.0089 34.4263 30.3493C34.6974 30.562 34.975 30.7665 35.2542 30.9674C35.7253 31.3041 35.8501 31.7826 35.7844 32.3195C35.7068 32.9472 35.6094 33.5734 35.5038 34.1974C35.4055 34.7727 35.1146 35.2283 34.5969 35.52C34.0778 35.8124 33.5572 36.1026 33.0351 36.3899C32.7559 36.5435 32.4569 36.6299 32.1209 36.6713C31.8964 36.5982 31.6593 36.5487 31.4503 36.4446Z" fill="white"/>
</mask>
<g mask="url(#mask0)">
<path fill-rule="evenodd" clip-rule="evenodd" d="M16.8709 3.0395C16.2225 3.42572 15.6089 3.78978 15.1045 3.99877C14.5529 4.22769 13.8306 4.41674 13.0663 4.61686C11.1412 5.12049 8.74708 5.7467 6.87803 7.61723C5.00825 9.48554 4.38203 11.8796 3.8784 13.8033C3.67902 14.5684 3.48997 15.2906 3.26031 15.8444C3.05206 16.3458 2.68874 16.9588 2.30326 17.6064C1.27606 19.3366 0 21.4848 0 24.2208C0 26.9575 1.27606 29.105 2.30105 30.8322C2.68726 31.4821 3.05206 32.095 3.26031 32.5986C3.48997 33.1518 3.67902 33.874 3.8784 34.639C4.38203 36.562 5.00751 38.9561 6.87729 40.8266C8.74708 42.6956 11.1404 43.3211 13.0634 43.8247C13.8329 44.0263 14.5536 44.2146 15.1045 44.4436C15.6089 44.6525 16.2218 45.0166 16.8709 45.4021C18.5974 46.4278 20.7463 47.7039 23.4823 47.7039C26.2191 47.7039 28.368 46.4278 30.0945 45.4021C30.7466 45.0151 31.3588 44.6511 31.8594 44.4436C32.4118 44.2146 33.1318 44.0263 33.8946 43.8262C35.825 43.3211 38.2183 42.6956 40.0866 40.8266C41.9564 38.9568 42.5826 36.5634 43.0863 34.6405C43.2864 33.874 43.4762 33.1518 43.7051 32.5994C43.9141 32.095 44.2782 31.4821 44.6644 30.833C45.6894 29.1057 46.9647 26.9575 46.9647 24.2208C46.9647 21.4855 45.6894 19.3374 44.6651 17.6116C44.2782 16.961 43.9141 16.3466 43.7051 15.8444C43.4762 15.2913 43.2864 14.5691 43.087 13.8048C42.5826 11.8789 41.9564 9.48554 40.0866 7.61723C38.2183 5.7467 35.8242 5.12049 33.9006 4.6176C33.1355 4.41747 32.4133 4.22769 31.8602 3.99877C31.3566 3.78978 30.7429 3.42572 30.0938 3.0395C28.3673 2.01452 26.2191 0.739197 23.4823 0.739197C20.7463 0.739197 18.5989 2.01452 16.8709 3.0395ZM14.5366 16.046C14.2206 15.9678 13.8986 15.8644 13.6549 15.6465C12.6476 14.7449 14.2951 14.1194 14.9841 13.9525C18.4335 13.1188 21.9825 12.7318 25.5294 12.6838C27.456 12.6587 29.4004 12.7348 31.2724 13.1941C32.1135 13.4001 32.9553 13.6948 33.6288 14.242C33.9567 14.5093 34.2506 14.8586 34.3038 15.278C34.3562 15.6967 34.0793 16.173 33.6598 16.2122C33.518 16.2255 33.3711 16.1922 33.2263 16.159C33.0004 16.1073 32.7796 16.0549 32.5972 16.179C32.3675 16.3355 32.3645 16.6722 32.4303 16.9425C32.8165 18.5199 34.5829 19.4348 35.0695 20.9856C35.1338 21.1894 35.1663 21.4331 35.0304 21.5985C34.9196 21.7344 34.7313 21.7721 34.5585 21.8016C33.7529 21.9382 32.9391 22.0756 32.1223 22.0423C31.3056 22.0098 30.4734 21.7927 29.8309 21.2862C28.8945 20.5484 28.495 19.3285 27.747 18.4002C26.9398 17.3989 25.7494 16.7793 24.4933 16.461C24.2452 16.3975 23.9948 16.3466 23.7438 16.3074C22.2233 16.0645 20.6718 16.1849 19.1335 16.2742C18.5236 16.3097 17.9092 16.3392 17.2962 16.3392C16.365 16.3392 15.4383 16.2705 14.5366 16.046ZM17.3627 24.1846C16.9211 24.0628 16.4581 23.9099 16.1605 23.5614C15.5771 22.8761 15.8319 21.6059 16.3724 20.9708C16.9772 20.2604 18.0066 19.9998 18.881 19.827C20.4354 19.5212 22.0224 19.3839 23.6064 19.4149C24.2592 19.4282 24.9511 19.4828 25.4843 19.8631C26.1024 20.304 26.3668 21.0794 26.595 21.8038C26.6363 21.936 26.6791 22.0734 26.6873 22.21C26.6924 22.2816 26.6873 22.3532 26.6695 22.4241C26.6186 22.6183 26.4694 22.7705 26.3202 22.9049C25.149 23.9579 23.5975 24.5302 22.0305 24.686C21.7026 24.7193 21.374 24.734 21.0454 24.734C19.8041 24.734 18.5627 24.5154 17.3627 24.1846ZM36.8802 29.7726C36.7872 29.76 36.7045 29.7061 36.6284 29.6522C36.1986 29.3516 35.7881 29.0068 35.5104 28.5622C34.7099 27.2773 34.783 25.0634 35.983 24.0687C36.0495 24.0133 36.1226 23.9601 36.2075 23.9483C36.3286 23.9321 36.4438 24.0022 36.5406 24.0783C37.44 24.7776 37.7561 25.9835 37.9318 27.1104C37.9872 27.4722 38.0352 27.8422 38.0138 28.2063C38.0071 28.3266 37.9924 28.447 37.9673 28.5666C37.8705 29.0444 37.5914 29.5104 37.1483 29.7157C37.0782 29.7497 37.0014 29.7755 36.9246 29.7755C36.9098 29.7755 36.895 29.7748 36.8802 29.7726ZM28.3495 30.3205C28.0394 30.319 27.7219 30.2917 27.4198 30.2215C26.7271 30.0591 26.0367 29.8796 25.3558 29.6743C25.0604 29.5857 24.7739 29.4439 24.5155 29.277C24.2592 29.1109 24.1529 28.8369 24.1743 28.5223C24.1905 28.289 24.2001 28.0556 24.2134 27.809C24.2134 27.5889 24.2208 27.3548 24.2119 27.1207C24.2001 26.7951 24.2969 26.4997 24.5324 26.2855C24.7798 26.0603 25.0479 25.8447 25.3411 25.6881C26.0566 25.3063 26.7877 24.9556 27.5173 24.6018C28.1635 24.2873 28.8347 24.2215 29.5237 24.4497C30.0598 24.6269 30.5945 24.8108 31.1262 25.0006C31.759 25.2266 32.1408 25.6505 32.1571 26.352C32.1652 26.7581 32.1762 27.1636 32.194 27.569C32.2228 28.2617 31.8882 28.7439 31.3078 29.0681C30.7392 29.3849 30.1588 29.6802 29.5828 29.9845C29.1995 30.1868 28.7926 30.3205 28.3591 30.3205C28.3562 30.3205 28.3532 30.3205 28.3495 30.3205ZM31.4503 36.4446C30.9548 36.1994 30.4741 35.9239 29.9845 35.667C29.4993 35.4122 29.3132 35.0142 29.4535 34.4876C29.6138 33.8814 29.7777 33.2766 29.949 32.674C30.0975 32.1489 30.4401 31.7627 30.895 31.4917C31.6128 31.0641 32.3431 30.6543 33.0786 30.2599C33.5335 30.0148 33.9951 30.0089 34.4263 30.3493C34.6974 30.562 34.975 30.7665 35.2542 30.9674C35.7253 31.3041 35.8501 31.7826 35.7844 32.3195C35.7068 32.9472 35.6094 33.5734 35.5038 34.1974C35.4055 34.7727 35.1146 35.2283 34.5969 35.52C34.0778 35.8124 33.5572 36.1026 33.0351 36.3899C32.7559 36.5435 32.4569 36.6299 32.1209 36.6713C31.8964 36.5982 31.6593 36.5487 31.4503 36.4446Z" fill="url(#paint0_linear)"/>
</g>
<path fill-rule="evenodd" clip-rule="evenodd" d="M83.9217 12.0917C83.4314 12.1065 82.9617 12.2121 82.5666 12.4986C82.2343 12.7394 81.9951 13.0842 81.7625 13.4217C79.3684 16.8932 76.9757 20.3647 74.5824 23.8362C72.3929 20.6697 70.2041 17.5032 68.0145 14.3366C67.5338 13.641 67.0346 12.9269 66.3242 12.4676C65.8959 12.1907 65.3767 12.0267 64.8642 12.0467C64.5238 12.06 63.9035 12.153 63.8348 12.5621C63.7853 12.8568 63.8289 13.1928 63.8282 13.4918C63.8274 13.819 63.8267 14.1469 63.826 14.4755C63.8245 15.1312 63.8237 15.7862 63.823 16.4427C63.8193 19.0658 63.8186 21.6895 63.8215 24.3125C63.8237 26.9363 63.8289 29.5593 63.837 32.183C63.8378 32.3662 63.8385 32.5501 63.8393 32.7332C65.1722 32.7317 66.5058 32.7302 67.8395 32.7288C67.8543 28.8917 67.869 25.0554 67.8838 21.2184C69.6591 23.7506 71.4336 26.2827 73.2089 28.8149C73.5655 29.323 74.0633 29.8946 74.6754 29.786C75.0196 29.724 75.2847 29.4552 75.5165 29.1923C77.6404 26.7775 79.0132 23.7572 81.2544 21.451C81.2743 25.2046 81.2935 28.9589 81.3135 32.7133C82.6567 32.7133 83.9985 32.7133 85.3418 32.7133C85.3403 25.8832 85.3396 19.0539 85.3381 12.2239C84.878 12.1478 84.3906 12.0777 83.9217 12.0917Z" fill="black"/>
<path fill-rule="evenodd" clip-rule="evenodd" d="M125.276 23.6024C125.513 21.7363 127.105 20.4462 129.128 20.4558C131.062 20.4647 132.546 21.7467 132.734 23.6024H125.276ZM132.937 18.0809C130.054 16.5597 125.986 16.9917 123.697 19.1517C121.066 21.6329 120.539 24.7286 121.612 28.0317C122.689 31.3452 125.261 32.8819 128.648 33.1086C131.311 33.2859 133.753 32.6117 136.037 31.0439C135.504 30.0957 135.01 29.2177 134.521 28.3485C129.577 30.7079 125.725 29.9731 125.288 26.6102H136.449C136.531 26.303 136.617 26.0837 136.647 25.8569C137.085 22.5944 135.599 19.4862 132.937 18.0809Z" fill="black"/>
<path fill-rule="evenodd" clip-rule="evenodd" d="M151.465 17.5884C150.825 17.5736 150.185 17.5618 149.545 17.5507C149.183 17.5448 148.8 17.5441 148.486 17.725C148.048 17.9768 147.863 18.5033 147.71 18.9848C146.809 21.8331 145.836 24.6592 144.794 27.4587C143.603 24.4384 142.396 21.4232 141.176 18.4155C141.074 18.1651 140.96 17.9 140.736 17.7523C140.519 17.6091 140.242 17.6039 139.982 17.6039C139.332 17.6039 138.681 17.6032 138.031 17.6024C137.706 17.6024 137.381 17.6017 137.056 17.6017C136.9 17.6017 136.743 17.5973 136.588 17.6017C136.407 17.6061 136.367 17.6032 136.417 17.7789C136.503 18.0839 136.685 18.3889 136.813 18.6798C136.945 18.9789 137.077 19.2795 137.209 19.5793C137.473 20.1789 137.737 20.7793 138.002 21.3789C139.058 23.7782 140.114 26.1782 141.171 28.5774C141.593 29.5374 142.016 30.4967 142.438 31.4567C142.631 31.8931 142.826 32.3451 142.829 32.8221C142.832 33.2962 142.64 33.7563 142.372 34.1477C141.391 35.5817 139.278 36.095 137.747 35.2716C137.526 36.3475 137.306 37.4227 137.085 38.4987C138.659 39.373 140.641 39.5717 142.283 38.8339C143.496 38.2889 144.456 37.2832 145.164 36.1577C145.872 35.0323 146.352 33.7814 146.828 32.5393C148.733 27.5643 150.639 22.5893 152.544 17.6142C152.185 17.6046 151.824 17.5965 151.465 17.5884Z" fill="black"/>
<path fill-rule="evenodd" clip-rule="evenodd" d="M95.3711 29.5447C92.9844 29.575 91.1175 27.61 91.1449 25.0962C91.1707 22.7088 93.0243 20.8405 95.363 20.8464C97.6714 20.8508 99.5552 22.7745 99.5633 25.1354C99.5707 27.5745 97.7253 29.5152 95.3711 29.5447ZM95.3622 17.1851C90.6612 17.194 87.2015 20.5636 87.1941 25.1398C87.1867 29.7833 90.6531 33.1986 95.374 33.1994C100.043 33.1994 103.527 29.7212 103.507 25.08C103.488 20.5983 99.9577 17.1762 95.3622 17.1851Z" fill="black"/>
<path fill-rule="evenodd" clip-rule="evenodd" d="M183.577 29.5447C181.21 29.5085 179.412 27.5871 179.431 25.114C179.45 22.7265 181.295 20.8508 183.633 20.8464C185.981 20.8412 187.88 22.8092 187.849 25.2159C187.817 27.6506 185.913 29.5809 183.577 29.5447ZM183.704 17.1851C179.003 17.1637 175.507 20.5237 175.483 25.0844C175.459 29.7449 178.893 33.1765 183.606 33.1994C188.291 33.2215 191.763 29.8017 191.796 25.1346C191.827 20.6721 188.298 17.2058 183.704 17.1851Z" fill="black"/>
<path fill-rule="evenodd" clip-rule="evenodd" d="M115.795 17.4989C113.331 16.7605 111.057 17.1445 109.299 19.2476C109.248 19.3082 109.141 19.3229 109.022 19.3769C108.996 18.7794 108.972 18.2322 108.947 17.6651H105.197V32.7533H109.11C109.11 32.3428 109.109 31.9853 109.11 31.6287C109.118 29.1689 109.083 26.7083 109.149 24.2507C109.205 22.1963 110.621 20.8205 112.531 20.8154C114.479 20.8102 115.696 22.0397 115.746 24.2049C115.804 26.6965 115.772 29.1903 115.778 31.6833C115.779 32.0356 115.778 32.3885 115.778 32.7482H119.695C119.695 29.3047 119.816 25.9152 119.655 22.5397C119.538 20.0932 118.226 18.2271 115.795 17.4989Z" fill="black"/>
<path fill-rule="evenodd" clip-rule="evenodd" d="M207.974 22.7984C207.881 20.3171 206.669 18.4319 204.239 17.5346C201.871 16.6603 199.37 17.2872 197.681 19.1179C197.59 19.2168 197.467 19.287 197.312 19.4059C197.281 18.7546 197.255 18.2059 197.227 17.6417H193.515V32.7381H197.398C197.398 32.2765 197.396 31.8829 197.398 31.4908C197.41 28.9978 197.357 26.5025 197.456 24.0139C197.534 22.0643 199.044 20.7743 200.958 20.8171C202.759 20.8577 203.918 22.0688 204.036 24.0442C204.06 24.4422 204.064 24.8417 204.065 25.2405C204.067 27.4005 204.066 29.5612 204.066 31.7212V32.7351H208.004C208.004 29.3729 208.097 26.0816 207.974 22.7984Z" fill="black"/>
<path fill-rule="evenodd" clip-rule="evenodd" d="M157.948 12.2263H153.912V32.7452H168.405V28.79H157.948V12.2263Z" fill="black"/>
<mask id="mask1" mask-type="alpha" maskUnits="userSpaceOnUse" x="0" y="0" width="212" height="48">
<path fill-rule="evenodd" clip-rule="evenodd" d="M0 47.7039H211.73V0.738464H0V47.7039Z" fill="white"/>
</mask>
<g mask="url(#mask1)">
<path fill-rule="evenodd" clip-rule="evenodd" d="M170.003 32.7522H173.844V17.6566H170.003V32.7522Z" fill="black"/>
<path fill-rule="evenodd" clip-rule="evenodd" d="M171.942 11.0569C170.532 11.0658 169.465 12.1476 169.509 13.5234C169.553 14.8762 170.607 15.8761 171.973 15.8569C173.349 15.8384 174.333 14.8304 174.333 13.4407C174.333 12.0686 173.308 11.048 171.942 11.0569Z" fill="black"/>
<path fill-rule="evenodd" clip-rule="evenodd" d="M208.934 15.6398C207.695 15.6398 206.791 14.6687 206.791 13.4458C206.791 12.2407 207.695 11.2526 208.917 11.2526C210.14 11.2526 211.027 12.2407 211.027 13.4628C211.027 14.6687 210.14 15.6398 208.934 15.6398ZM208.917 10.7002C207.343 10.7002 206.087 11.9224 206.087 13.4458C206.087 15.004 207.343 16.2261 208.917 16.2261C210.508 16.2261 211.73 15.004 211.73 13.4458C211.73 11.9224 210.508 10.7002 208.917 10.7002Z" fill="black"/>
<path fill-rule="evenodd" clip-rule="evenodd" d="M208.8 13.3292H208.499V12.542C208.565 12.525 208.683 12.5088 208.85 12.5088C209.252 12.5088 209.437 12.6764 209.437 12.9275C209.437 13.2118 209.152 13.3292 208.8 13.3292ZM209.553 13.5301V13.4969C209.889 13.3957 210.123 13.1616 210.123 12.8603C210.123 12.5922 210.005 12.3744 209.855 12.257C209.654 12.1403 209.42 12.0561 208.9 12.0561C208.448 12.0561 208.096 12.0901 207.845 12.1403V14.8866H208.482V13.7812H208.783C209.135 13.7812 209.302 13.9148 209.352 14.2169C209.437 14.5344 209.486 14.7862 209.57 14.8866H210.257C210.19 14.7862 210.14 14.6186 210.056 14.1999C209.972 13.8314 209.821 13.6305 209.553 13.5301Z" fill="black"/>
</g>
<defs>
<linearGradient id="paint0_linear" x1="-7.44899" y1="89.9291" x2="58.2589" y2="89.9291" gradientUnits="userSpaceOnUse">
<stop stop-color="#00CD87"/>
<stop offset="1" stop-color="#00C8D6"/>
</linearGradient>
</defs>
</svg>
